<?xml version="1.0" encoding="utf-8"?>
<!-- Generator: Adobe Illustrator 16.0.0, SVG Export Plug-In . SVG Version: 6.00 Build 0)  -->
<!DOCTYPE svg PUBLIC "-//W3C//DTD SVG 1.1//EN" "http://www.w3.org/Graphics/SVG/1.1/DTD/svg11.dtd">
<svg version="1.1" id="Ebene_1" xmlns="http://www.w3.org/2000/svg" xmlns:xlink="http://www.w3.org/1999/xlink" x="0px" y="0px"
	 width="252.508px" height="100px" viewBox="0 0 252.508 100" enable-background="new 0 0 252.508 100" xml:space="preserve">
<path fill="#B2B2B2" d="M246.236,39.179c-5.949-3.302-13.601-1.004-17.002,5.109l-10.045,18.041l-9.744-18.206
	c-0.447-0.85-1-1.624-1.596-2.321c-0.953-1.172-2.113-2.186-3.496-2.961c-1.859-1.034-3.89-1.522-5.902-1.522
	c-2.004-0.026-4.041,0.421-5.924,1.429c-1.396,0.748-2.578,1.752-3.541,2.906c-0.613,0.685-1.17,1.452-1.637,2.291l-10.002,17.98
	l-9.716-18.139c-0.457-0.855-0.995-1.624-1.603-2.32c-0.946-1.18-2.108-2.2-3.497-2.962c-1.854-1.03-3.884-1.522-5.896-1.522
	c-2.012-0.04-4.043,0.421-5.926,1.422c-1.396,0.748-2.58,1.752-3.539,2.906c-0.617,0.685-1.172,1.452-1.645,2.291l-9.935,17.856
	l-9.643-18.011c-0.455-0.854-0.998-1.621-1.6-2.328c-0.955-1.169-2.113-2.183-3.502-2.958c-1.855-1.04-3.883-1.516-5.896-1.516
	c-2.008-0.034-4.043,0.411-5.926,1.415c-1.398,0.755-2.576,1.744-3.541,2.91c-0.619,0.684-1.168,1.452-1.629,2.291l-9.848,17.674
	L65.031,6.794c-2.328-4.345-6.787-6.824-11.318-6.791c-4.533-0.101-9.027,2.305-11.422,6.603L1.637,79.673
	c-3.404,6.117-1.324,13.831,4.625,17.129c5.957,3.321,13.604,1.023,17.002-5.09l30.15-54.171L82.66,92.197
	c0.881,1.627,2.066,2.986,3.441,4.068c0.541,0.451,1.113,0.855,1.752,1.205c1.787,1,3.729,1.475,5.668,1.51c0.061,0,0.121,0,0.182,0
	c0.068,0,0.131,0,0.188,0c1.938,0,3.889-0.44,5.693-1.407c0.633-0.345,1.227-0.738,1.766-1.177c1.398-1.059,2.604-2.396,3.51-4.024
	l9.785-17.59l9.502,17.751c1.895,3.527,5.197,5.828,8.812,6.542c0.115,0.032,0.236,0.04,0.346,0.061
	c0.269,0.052,0.527,0.089,0.793,0.118c0.188,0.023,0.369,0.03,0.56,0.036c0.209,0.019,0.422,0.026,0.627,0.026
	c0.209,0,0.422-0.002,0.629-0.01c0.188-0.01,0.371-0.018,0.565-0.029c0.265-0.023,0.529-0.067,0.793-0.103
	c0.117-0.022,0.229-0.04,0.354-0.053c3.617-0.661,6.959-2.907,8.912-6.417l9.791-17.588l9.489,17.748
	c2.14,3.979,6.072,6.388,10.199,6.755c0.033,0,0.051,0,0.08,0.004c0.312,0.017,0.625,0.033,0.935,0.044
	c0.315,0,0.631-0.02,0.936-0.035c0.031,0,0.052,0,0.082,0c4.14-0.292,8.104-2.641,10.302-6.584l9.791-17.594l9.5,17.748
	c2.311,4.328,6.744,6.801,11.25,6.794c4.51,0.073,8.967-2.327,11.352-6.603l20.627-37.072
	C254.279,50.21,252.188,42.492,246.236,39.179"/>
</svg>
