<?xml version="1.0" encoding="utf-8"?>
<!-- Generator: Adobe Illustrator 17.0.2, SVG Export Plug-In . SVG Version: 6.00 Build 0)  -->
<!DOCTYPE svg PUBLIC "-//W3C//DTD SVG 1.1//EN" "http://www.w3.org/Graphics/SVG/1.1/DTD/svg11.dtd">
<svg version="1.1" id="Ebene_1" xmlns="http://www.w3.org/2000/svg" xmlns:xlink="http://www.w3.org/1999/xlink" x="0px" y="0px"
	 width="681.892px" height="154.899px" viewBox="0 0 681.892 154.899" enable-background="new 0 0 681.892 154.899"
	 xml:space="preserve">
<g>
	<path fill-rule="evenodd" clip-rule="evenodd" fill="#B2B2B2" d="M381.422,60.687c-9.214-5.113-21.064-1.555-26.334,7.915
		l-15.559,27.946l-15.095-28.202c-0.694-1.315-1.549-2.515-2.473-3.595c-1.476-1.816-3.272-3.386-5.416-4.586
		c-2.88-1.602-6.022-2.358-9.142-2.358c-3.104-0.042-6.261,0.652-9.178,2.213c-2.16,1.158-3.992,2.713-5.484,4.508
		c-0.95,1.054-1.811,2.244-2.536,3.548l-15.491,27.847l-15.048-28.098c-0.71-1.325-1.545-2.515-2.484-3.595
		c-1.466-1.826-3.266-3.407-5.416-4.586c-2.875-1.597-6.016-2.358-9.131-2.358c-3.115-0.063-6.261,0.652-9.178,2.202
		c-2.165,1.158-3.997,2.713-5.484,4.503c-0.955,1.059-1.816,2.249-2.546,3.548l-15.387,27.66l-14.938-27.899
		c-0.705-1.32-1.545-2.51-2.479-3.605c-1.477-1.811-3.271-3.381-5.421-4.581c-2.875-1.613-6.016-2.348-9.136-2.348
		c-3.11-0.052-6.261,0.637-9.178,2.192c-2.165,1.169-3.991,2.702-5.483,4.508c-0.96,1.064-1.811,2.249-2.526,3.548l-15.252,27.377
		l-44.893-83.865C97.129,3.793,90.22-0.048,83.202,0.005c-7.023-0.157-13.984,3.569-17.693,10.226L2.536,123.415
		c-5.275,9.476-2.051,21.424,7.164,26.532c9.225,5.145,21.069,1.586,26.334-7.884l46.704-83.912l45.306,84.663
		c1.362,2.52,3.198,4.628,5.327,6.303c0.84,0.699,1.727,1.325,2.713,1.868c2.77,1.549,5.776,2.285,8.781,2.338
		c0.094,0,0.188,0,0.282,0c0.104,0,0.203,0,0.292,0c3.001,0,6.022-0.684,8.818-2.181c0.981-0.532,1.899-1.138,2.734-1.821
		c2.165-1.639,4.033-3.71,5.436-6.235l15.158-27.247l14.719,27.497c2.933,5.463,8.051,9.027,13.65,10.133
		c0.178,0.052,0.365,0.062,0.537,0.094c0.412,0.078,0.814,0.136,1.226,0.183c0.292,0.036,0.574,0.047,0.866,0.057
		c0.324,0.026,0.652,0.042,0.97,0.042c0.324,0,0.652-0.005,0.976-0.016c0.292-0.015,0.574-0.026,0.876-0.047
		c0.407-0.036,0.819-0.104,1.226-0.157c0.183-0.036,0.355-0.063,0.548-0.083c5.604-1.023,10.779-4.503,13.806-9.94l15.168-27.242
		l14.699,27.492c3.313,6.162,9.407,9.893,15.799,10.462c0.052,0,0.079,0,0.126,0.005c0.48,0.026,0.965,0.052,1.445,0.068
		c0.491,0,0.976-0.026,1.45-0.052c0.047,0,0.079,0,0.126,0c6.413-0.454,12.554-4.091,15.956-10.2l15.168-27.252l14.714,27.492
		c3.579,6.705,10.446,10.535,17.427,10.524c6.986,0.115,13.89-3.605,17.584-10.227l31.954-57.426
		C393.883,77.775,390.642,65.821,381.422,60.687"/>
	<g>
		<path fill="#B2B2B2" d="M419.289,34.156h7.254v108.97c0,3.462,1.483,5.11,3.462,5.11c0.659,0,1.318,0,2.967-0.33l1.319,5.935
			c-1.484,0.495-2.968,0.825-5.275,0.825c-6.43,0-9.727-3.957-9.727-12.529V34.156z"/>
		<path fill="#B2B2B2" d="M505.013,103.066c0.329-12.035-3.133-25.058-18.629-25.058c-10.716,0-19.947,5.275-25.223,9.232
			l-3.298-5.44c5.605-3.957,16.486-10.221,29.345-10.221c18.794,0,25.058,13.519,25.058,30.499v50.611h-6.1l-0.824-10.221h-0.329
			c-8.078,6.43-17.64,12.2-28.025,12.2c-12.529,0-23.08-6.759-23.08-21.761C453.907,115.43,469.898,107.023,505.013,103.066z
			 M478.141,148.401c9.067,0,17.146-4.451,26.872-12.859v-26.872c-32.477,3.792-43.522,11.375-43.522,23.904
			C461.49,143.95,469.074,148.401,478.141,148.401z"/>
		<path fill="#B2B2B2" d="M540.618,34.156h7.253v34.29l-0.329,15.496c8.078-6.759,17.64-12.364,27.366-12.364
			c21.102,0,31.652,15.826,31.652,40.39c0,26.872-16.321,42.698-34.949,42.698c-7.584,0-16.321-3.627-23.74-9.397h-0.329
			l-0.824,7.418h-6.1V34.156z M571.281,148.236c15.991,0,27.531-14.837,27.531-36.268c0-19.453-6.925-33.96-25.059-33.96
			c-7.913,0-16.485,4.616-25.883,13.023v46.984C556.609,145.434,565.182,148.236,571.281,148.236z"/>
		<path fill="#B2B2B2" d="M624.689,138.345c6.759,5.605,13.848,10.056,25.223,10.056c12.364,0,18.794-7.254,18.794-15.662
			c0-9.891-10.221-14.177-19.288-17.475c-12.034-4.286-25.223-9.067-25.223-22.585c0-11.54,9.066-21.102,25.553-21.102
			c8.407,0,16.814,3.462,22.585,8.243l-3.957,5.11c-5.275-3.957-10.88-7.089-18.958-7.089c-12.199,0-17.805,7.089-17.805,14.343
			c0,9.067,9.232,12.529,18.629,15.991c12.364,4.616,25.883,8.737,25.883,24.234c0,11.87-9.562,22.256-26.707,22.256
			c-11.705,0-21.926-4.946-29.015-10.881L624.689,138.345z"/>
	</g>
</g>
</svg>
