<?xml version="1.0" encoding="utf-8"?>
<!-- Generator: Adobe Illustrator 16.0.0, SVG Export Plug-In . SVG Version: 6.00 Build 0)  -->
<!DOCTYPE svg PUBLIC "-//W3C//DTD SVG 1.1//EN" "http://www.w3.org/Graphics/SVG/1.1/DTD/svg11.dtd">
<svg version="1.1" id="Ebene_1" xmlns="http://www.w3.org/2000/svg" xmlns:xlink="http://www.w3.org/1999/xlink" x="0px" y="0px"
	 width="122.777px" height="100px" viewBox="0 0 122.777 100" enable-background="new 0 0 122.777 100" xml:space="preserve">
<path fill="#B2B2B2" d="M107.91,0.001C104.592-0.047,96.881,1.082,84.006,9.7c-7.018-1.757-14.475-2.632-21.959-2.632
	c-8.225,0-16.543,1.052-24.297,3.18C19.27-2.362,11.109,0.226,11.109,0.226c-5.322,13.312-2.033,23.181-1.033,25.625
	C3.822,32.609,0,41.232,0,51.807c0,7.983,0.9,15.137,3.123,21.361c0.121,0.486,0.086,0.375,0.291,0.779
	c0.488,1.294,1.033,2.551,1.644,3.757c0.217,0.43,0.403,0.765,0.403,0.765C11.697,90.09,24,97.596,45.883,99.959L78.984,100
	c23.336-2.312,34.535-9.852,39.695-21.557l0.329-0.762c0.488-1.185,0.912-2.423,2.078-6.558c1.172-4.146,1.689-11.319,1.689-19.325
	c0-11.468-4.31-20.652-11.31-27.64c1.224-3.948,2.855-12.717-1.633-23.941C109.836,0.219,109.207,0.02,107.91,0.001z M81.826,42.114
	c5.385-0.011,10.004,0.911,13.471,4.554c4.336,4.551,6.877,10.053,6.877,15.979c0,27.664-17.793,28.414-39.748,28.414
	c-21.948,0-39.733-3.828-39.733-28.414c0-5.89,2.504-11.347,6.787-15.882c7.139-7.56,19.233-3.565,32.946-3.565
	C69.477,43.198,76.088,42.125,81.826,42.114z M40.947,50.26c-4.568,0-8.273,6.18-8.273,13.795c0,7.618,3.705,13.789,8.273,13.789
	c4.564,0,8.27-6.171,8.27-13.789C49.217,56.438,45.512,50.267,40.947,50.26z M85.311,50.26c-4.568,0-8.271,6.18-8.271,13.795
	c0,7.618,3.703,13.789,8.271,13.789c4.567,0,8.27-6.171,8.27-13.789C93.58,56.438,89.879,50.267,85.311,50.26z"/>
</svg>
