<?xml version="1.0" encoding="utf-8"?>
<!-- Generator: Adobe Illustrator 17.0.2, SVG Export Plug-In . SVG Version: 6.00 Build 0)  -->
<!DOCTYPE svg PUBLIC "-//W3C//DTD SVG 1.1//EN" "http://www.w3.org/Graphics/SVG/1.1/DTD/svg11.dtd">
<svg version="1.1" id="Ebene_1" xmlns="http://www.w3.org/2000/svg" xmlns:xlink="http://www.w3.org/1999/xlink" x="0px" y="0px"
	 width="1784px" height="1134px" viewBox="0 0 1784 1134" enable-background="new 0 0 1784 1134" xml:space="preserve">
<g>
	<path fill="none" stroke="#575756" stroke-width="4" stroke-miterlimit="10" d="M152,1002V32c0-16.569,13.431-30,30-30h1420
		c16.569,0,30,13.431,30,30v970H152z"/>
	<rect x="252" y="102" fill="none" stroke="#575756" stroke-width="4" stroke-miterlimit="10" width="1280" height="800"/>
	<rect x="2" y="1002" fill="none" stroke="#575756" stroke-width="4" stroke-miterlimit="10" width="1780" height="80"/>
	<path fill="none" stroke="#575756" stroke-width="4" stroke-miterlimit="10" d="M1009.667,1037H773
		c-8.284,0-18.574-5.686-22.983-12.7L736,1002h312l-15.013,22.519C1028.392,1031.412,1017.951,1037,1009.667,1037z"/>
	<circle fill="none" stroke="#575756" stroke-width="4" stroke-miterlimit="10" cx="892" cy="51.749" r="12"/>
	<path fill="none" stroke="#575756" stroke-width="4" stroke-linecap="round" stroke-linejoin="bevel" stroke-miterlimit="10" d="
		M1686,1132H98c-16.569,0-40.706-8.111-53.913-18.116L2,1082h1780l-42.087,31.884C1726.706,1123.889,1702.569,1132,1686,1132z"/>
</g>
</svg>
