<?xml version="1.0" encoding="utf-8"?>
<!-- Generator: Adobe Illustrator 16.0.0, SVG Export Plug-In . SVG Version: 6.00 Build 0)  -->
<!DOCTYPE svg PUBLIC "-//W3C//DTD SVG 1.1//EN" "http://www.w3.org/Graphics/SVG/1.1/DTD/svg11.dtd">
<svg version="1.1" id="Ebene_1" xmlns="http://www.w3.org/2000/svg" xmlns:xlink="http://www.w3.org/1999/xlink" x="0px" y="0px"
	 width="123.043px" height="100px" viewBox="0 0 123.043 100" enable-background="new 0 0 123.043 100" xml:space="preserve">
<path fill="#B2B2B2" d="M123.043,11.839c-4.523,2.011-9.393,3.368-14.496,3.977c5.219-3.117,9.217-8.073,11.104-13.967
	c-4.879,2.898-10.282,4.999-16.037,6.122C99.012,3.07,92.452,0,85.191,0C71.25,0,59.943,11.31,59.943,25.249
	c0,1.984,0.222,3.906,0.658,5.751C39.616,29.949,21.016,19.9,8.567,4.622c-2.175,3.734-3.42,8.068-3.42,12.694
	c0,8.766,4.455,16.484,11.234,21.012c-4.143-0.135-8.033-1.26-11.433-3.158C4.94,35.279,4.94,35.38,4.94,35.488
	c0,12.229,8.708,22.437,20.25,24.752c-2.116,0.58-4.345,0.887-6.648,0.887c-1.631,0-3.205-0.16-4.751-0.451
	c3.214,10.025,12.531,17.328,23.58,17.522c-8.64,6.776-19.526,10.815-31.349,10.815c-2.035,0-4.046-0.121-6.022-0.352
	C11.166,95.822,24.443,100,38.697,100c46.438,0,71.827-38.468,71.827-71.824c0-1.09-0.027-2.188-0.073-3.265
	C115.383,21.352,119.658,16.908,123.043,11.839"/>
</svg>
